<?xml version="1.0" encoding="UTF-8"?>
<svg width="76px" height="76px" viewBox="0 0 76 76" version="1.1" xmlns="http://www.w3.org/2000/svg" xmlns:xlink="http://www.w3.org/1999/xlink">
    <!-- Generator: Sketch 51.3 (57544) - http://www.bohemiancoding.com/sketch -->
    <title>Logo</title>
    <desc>Created with Sketch.</desc>
    <defs></defs>
    <g id="Design" stroke="none" stroke-width="1" fill="none" fill-rule="evenodd">
        <g id="Sign-up" transform="translate(-150.000000, -120.000000)" fill-rule="nonzero">
            <g id="Logo" transform="translate(150.000000, 120.000000)">
                <path d="M15.5,0.5 L60.5,0.5 C68.7842712,0.5 75.5,7.21572875 75.5,15.5 L75.5,60.5 C75.5,68.7842712 68.7842712,75.5 60.5,75.5 L15.5,75.5 C7.21572875,75.5 0.5,68.7842712 0.5,60.5 L0.5,15.5 C0.5,7.21572875 7.21572875,0.5 15.5,0.5 Z" id="Path" fill="#FFFFFF"></path>
                <path d="M50.733,48.021 C50.7481398,49.1689773 50.5755308,50.3117102 50.222,51.404 C49.9039021,52.3706455 49.4255704,53.2769404 48.807,54.085 C48.2011734,54.8631162 47.4738379,55.538451 46.653,56.085 C45.7940572,56.6587537 44.8664679,57.1223803 43.892,57.465 C42.848638,57.8369884 41.7710684,58.1049572 40.675,58.265 C39.412409,58.4445481 38.1382655,58.5304491 36.863,58.522 L27.6,58.522 C27.0537475,58.5382156 26.5211854,58.3495181 26.107,57.993 C25.6609294,57.5376374 25.4387719,56.908496 25.5,56.274 L25.5,25.746 C25.4397204,25.1113212 25.6617194,24.4822631 26.107,24.026 C26.5221659,23.6714972 27.0543082,23.4840177 27.6,23.5 L36.353,23.5 C38.1766433,23.4677431 39.99777,23.6496544 41.779,24.042 C43.1212184,24.3406378 44.3927243,24.8969216 45.523,25.68 C46.5222978,26.3914725 47.3238428,27.3458238 47.852,28.453 C48.4169222,29.6922482 48.6935222,31.0434511 48.661,32.405 C48.6658396,33.21622 48.5567754,34.0241031 48.337,34.805 C48.1321392,35.5315574 47.8135276,36.2210948 47.393,36.848 C46.9759618,37.4661767 46.4628267,38.0137459 45.873,38.47 C45.2488676,38.9532031 44.5536159,39.3367553 43.812,39.607 C44.767654,39.7779467 45.6905526,40.0978399 46.547,40.555 C47.37309,41.0006569 48.1116682,41.5921971 48.727,42.301 C49.3619677,43.0396143 49.8588816,43.8864341 50.194,44.801 C50.5661194,45.8331142 50.7487184,46.9239651 50.733,48.021 Z M41.577,33.271 C41.5872305,32.6255492 41.4780632,31.9837675 41.255,31.378 C41.0551863,30.8371076 40.7218568,30.3555169 40.286,29.978 C39.8069508,29.5848362 39.2521064,29.294479 38.656,29.125 C37.7994874,28.901916 36.9157601,28.8009186 36.031,28.825 L32.448,28.825 L32.448,37.919 L36.406,37.919 C37.2389472,37.9499175 38.0703892,37.8258116 38.858,37.553 C39.4314755,37.3338258 39.9504563,36.9926155 40.379,36.553 C40.783095,36.1271659 41.0901373,35.6188402 41.279,35.063 C41.4778137,34.4865261 41.578544,33.8807923 41.577,33.271 Z M43.382,48.266 C43.3944589,47.5200053 43.2584903,46.7789765 42.982,46.086 C42.7224978,45.4608749 42.3151768,44.9080576 41.795,44.475 C41.2065473,44.0086758 40.5285142,43.6682977 39.803,43.475 C38.7737952,43.2135516 37.7135444,43.0947739 36.652,43.122 L32.452,43.122 L32.452,53.083 L37.567,53.083 C38.4084559,53.1027469 39.2482065,52.9979466 40.059,52.772 C40.6970065,52.5835189 41.2916523,52.271245 41.809,51.853 C42.3067724,51.4437569 42.7031078,50.9248929 42.967,50.337 C43.2553795,49.6850205 43.3973769,48.9777645 43.383,48.265 L43.382,48.266 Z" id="Shape" fill="#586BCA"></path>
                <circle id="Oval" fill="#586BCA" cx="61.5" cy="14.5" r="4"></circle>
            </g>
        </g>
    </g>
</svg>