<?xml version="1.0" encoding="UTF-8"?>
<svg width="33px" height="11px" viewBox="0 0 33 11" version="1.1" xmlns="http://www.w3.org/2000/svg" xmlns:xlink="http://www.w3.org/1999/xlink">
    <!-- Generator: Sketch 51.3 (57544) - http://www.bohemiancoding.com/sketch -->
    <title>Shape</title>
    <desc>Created with Sketch.</desc>
    <defs></defs>
    <g id="Design" stroke="none" stroke-width="1" fill="none" fill-rule="evenodd">
        <g id="Payment-Method" transform="translate(-277.000000, -129.000000)" fill="#FFFFFF" fill-rule="nonzero">
            <g id="Card" transform="translate(45.000000, 114.000000)">
                <g id="VISA-Logo" transform="translate(232.000000, 15.000000)">
                    <path d="M16.619,3.317 C16.601,4.762 17.907,5.569 18.891,6.049 C19.902,6.541 20.242,6.857 20.238,7.297 C20.23,7.971 19.431,8.268 18.683,8.279 C17.754721,8.29929481 16.8367685,8.08099705 16.017,7.645 L15.547,9.845 C16.4670414,10.2033799 17.4466432,10.3842346 18.434,10.378 C21.161,10.378 22.945,9.032 22.955,6.945 C22.966,4.296 19.291,4.145 19.316,2.966 C19.325,2.607 19.667,2.224 20.416,2.126 C21.2942185,2.0418469 22.1788386,2.19700098 22.976,2.575 L23.432,0.447 C22.6550844,0.154588968 21.8321178,0.0035424163 21.002,0.001 C18.435,0.001 16.63,1.365 16.615,3.319 M27.815,0.185 C27.3325597,0.183084436 26.8972891,0.474319989 26.715,0.921 L22.815,10.221 L25.54,10.221 L26.082,8.721 L29.412,8.721 L29.727,10.221 L32.127,10.221 L30.027,0.184 L27.822,0.184 M28.203,2.896 L28.989,6.668 L26.835,6.668 L28.2,2.894 M13.315,0.183 L11.167,10.22 L13.767,10.22 L15.914,0.183 L13.314,0.183 M9.473,0.183 L6.773,7.015 L5.678,1.206 C5.58561867,0.615392616 5.07578455,0.180759034 4.478,0.183 L0.062,0.183 L0,0.474 C0.886337757,0.650463961 1.74705142,0.937368515 2.562,1.328 C2.90728893,1.49442108 3.14104958,1.82858135 3.179,2.21 L5.25,10.22 L7.994,10.22 L12.2,0.182991374 L9.474,0.183" id="Shape"></path>
                </g>
            </g>
        </g>
    </g>
</svg>