<?xml version="1.0" encoding="UTF-8"?>
<svg width="241px" height="289px" viewBox="0 0 241 289" version="1.1" xmlns="http://www.w3.org/2000/svg" xmlns:xlink="http://www.w3.org/1999/xlink">
    <!-- Generator: Sketch 51.3 (57544) - http://www.bohemiancoding.com/sketch -->
    <title>Illustration</title>
    <desc>Created with Sketch.</desc>
    <defs></defs>
    <g id="Design" stroke="none" stroke-width="1" fill="none" fill-rule="evenodd">
        <g id="Onboarding-Screen" transform="translate(-67.000000, -325.000000)">
            <g id="Illustration" transform="translate(67.000000, 325.000000)">
                <path d="M194.51,27.43 C247.794,66.314 256.57,137.394 214.11,186.192 C171.65,234.99 42.34,266.523 40.753,204.144 C39.153,141.366 3.883,82.535 21.153,45.382 C47.837,-12.029 141.226,-11.454 194.51,27.43 Z" id="Path_1839" fill="#AEB9F0" fill-rule="nonzero"></path>
                <ellipse id="Ellipse_310" fill="#F4F4F4" fill-rule="nonzero" cx="66.687" cy="278.355" rx="63.869" ry="10.645"></ellipse>
                <path d="M45.841,238.577 C45.841,255.839 35.579,261.866 22.921,261.866 C10.263,261.866 0.001,255.839 0.001,238.577 C0.001,221.315 22.921,199.356 22.921,199.356 C22.921,199.356 45.841,221.316 45.841,238.577 Z" id="Path_1837" fill="#28B44E" fill-rule="nonzero"></path>
                <polygon id="Path_1838" fill="#876C36" fill-rule="nonzero" points="22.085 259.225 22.32 244.779 32.089 226.907 22.357 242.513 22.463 236.013 29.196 223.083 22.496 234.294 22.496 234.294 22.686 222.611 29.896 212.317 22.716 220.774 22.834 199.352 22.089 227.711 22.15 226.541 14.82 215.321 22.032 228.787 21.349 241.835 21.329 241.489 12.878 229.682 21.303 242.713 21.217 244.345 21.202 244.369 21.209 244.503 19.476 277.603 21.791 277.603 22.069 260.503 30.469 247.503"></polygon>
                <rect id="Rectangle_1755" fill="#324B67" fill-rule="nonzero" x="70.657" y="35.321" width="112.023" height="227.324" rx="16"></rect>
                <path d="M166.88,41.236 L154.03,41.236 L154.03,42.779 C154.02841,44.72064 153.255365,46.5820796 151.881012,47.9536196 C150.506659,49.3251595 148.643639,50.0943882 146.702,50.092 L105.834,50.092 C103.892361,50.0943882 102.029341,49.3251595 100.654988,47.9536196 C99.2806348,46.5820796 98.5075903,44.72064 98.506,42.779 L98.506,41.236 L86.476,41.236 C84.1177057,41.2333465 81.8549906,42.1678365 80.1858302,43.8338086 C78.5166699,45.4997806 77.5778554,47.7607049 77.576,50.119 L77.576,247.836 C77.5778554,250.194295 78.5166699,252.455219 80.1858302,254.121191 C81.8549906,255.787164 84.1177057,256.721653 86.476,256.719 L166.876,256.719 C169.234294,256.721653 171.497009,255.787164 173.16617,254.121191 C174.83533,252.455219 175.774145,250.194295 175.776,247.836 L175.776,50.136 C175.778658,47.7747595 174.841835,45.5094653 173.172185,43.8398151 C171.502535,42.1701649 169.23724,41.2333424 166.876,41.236 L166.88,41.236 Z" id="Path_2112" fill="#FFFFFF" fill-rule="nonzero"></path>
                <rect id="Rectangle_1754" fill="#FFFFFF" fill-rule="nonzero" x="115.878" y="42.072" width="15.643" height="2" rx="1"></rect>
                <circle id="Ellipse_359" fill="#FFFFFF" fill-rule="nonzero" cx="134.867" cy="43.072" r="1"></circle>
                <g id="Group_3380" transform="translate(93.348000, 85.255000)" fill-rule="nonzero">
                    <circle id="Ellipse_352" fill="#42B7B3" cx="7.838" cy="7.838" r="7.838"></circle>
                    <rect id="Rectangle_1734" fill="#A5A5A5" x="23.271" y="1.958" width="13.962" height="2.449" rx="1.2245"></rect>
                    <rect id="Rectangle_1735" fill="#A5A5A5" x="23.271" y="6.612" width="38.46" height="2.449" rx="1.2245"></rect>
                    <rect id="Rectangle_1736" fill="#A5A5A5" x="23.271" y="11.267" width="38.46" height="2.449" rx="1.2245"></rect>
                </g>
                <g id="Group_9602" transform="translate(93.348000, 114.756000)" fill="#CBCBCB" fill-rule="nonzero">
                    <path d="M7.838,0 C12.1668079,2.65063035e-16 15.676,3.50919213 15.676,7.838 C15.676,12.1668079 12.1668079,15.676 7.838,15.676 C3.50919213,15.676 5.3012607e-16,12.1668079 0,7.838 C-5.3012607e-16,3.50919213 3.50919213,7.95189105e-16 7.838,0 Z" id="Path_14361"></path>
                    <rect id="Rectangle_1734-2" x="23.271" y="1.958" width="13.962" height="2.449" rx="1.2245"></rect>
                    <rect id="Rectangle_1735-2" x="23.271" y="6.612" width="38.46" height="2.449" rx="1.2245"></rect>
                    <rect id="Rectangle_1736-2" x="23.271" y="11.267" width="38.46" height="2.449" rx="1.2245"></rect>
                </g>
                <g id="Group_3382" transform="translate(93.348000, 144.256000)" fill="#CBCBCB" fill-rule="nonzero">
                    <circle id="Ellipse_352-2" cx="7.838" cy="7.838" r="7.838"></circle>
                    <rect id="Rectangle_1734-3" x="23.271" y="1.958" width="13.962" height="2.449" rx="1.2245"></rect>
                    <rect id="Rectangle_1735-3" x="23.271" y="6.612" width="38.46" height="2.449" rx="1.2245"></rect>
                    <rect id="Rectangle_1736-3" x="23.271" y="11.267" width="38.46" height="2.449" rx="1.2245"></rect>
                </g>
                <g id="Group_3383" transform="translate(93.348000, 173.756000)" fill="#CBCBCB" fill-rule="nonzero">
                    <circle id="Ellipse_352-3" cx="7.838" cy="7.838" r="7.838"></circle>
                    <rect id="Rectangle_1734-4" x="23.271" y="1.958" width="13.962" height="2.449" rx="1.2245"></rect>
                    <rect id="Rectangle_1735-4" x="23.271" y="6.612" width="38.46" height="2.449" rx="1.2245"></rect>
                    <rect id="Rectangle_1736-4" x="23.271" y="11.267" width="38.46" height="2.449" rx="1.2245"></rect>
                </g>
                <g id="Group_3384" transform="translate(93.348000, 203.256000)" fill="#CBCBCB" fill-rule="nonzero">
                    <circle id="Ellipse_352-4" cx="7.838" cy="7.838" r="7.838"></circle>
                    <rect id="Rectangle_1734-5" x="23.271" y="1.958" width="13.962" height="2.449" rx="1.2245"></rect>
                    <rect id="Rectangle_1735-5" x="23.271" y="6.612" width="38.46" height="2.449" rx="1.2245"></rect>
                    <rect id="Rectangle_1736-5" x="23.271" y="11.267" width="38.46" height="2.449" rx="1.2245"></rect>
                </g>
                <g id="Group" transform="translate(62.000000, 68.000000)" fill="#FFFFFF" fill-rule="nonzero">
                    <rect id="Rectangle_1750-2" x="0.3" y="0.75" width="128.469" height="40.469" rx="3"></rect>
                </g>
                <rect id="Rectangle_1751" fill="#42CE2C" fill-rule="nonzero" x="110.539" y="81.334" width="17.603" height="3.089" rx="1.544"></rect>
                <rect id="Rectangle_1752" fill="#42CE2C" fill-rule="nonzero" x="110.499" y="87.195" width="53.385" height="3.089" rx="1.544"></rect>
                <rect id="Rectangle_1753" fill="#42CE2C" fill-rule="nonzero" x="110.499" y="93.057" width="53.385" height="3.089" rx="1.544"></rect>
                <g id="Group_9603" transform="translate(85.149000, 78.863000)">
                    <circle id="Ellipse_358" fill="#42CE2C" fill-rule="nonzero" cx="9.882" cy="9.882" r="9.882"></circle>
                    <polyline id="Path_2144" stroke="#FFFFFF" stroke-width="3" stroke-linecap="round" stroke-linejoin="round" points="5.579 10.53 8.094 13.23 14.709 6.13"></polyline>
                </g>
                <g id="Group_3378" transform="translate(25.274000, 92.514000)" fill-rule="nonzero">
                    <circle id="Ellipse_315" fill="#CFACB1" cx="30.762" cy="19.684" r="9.536"></circle>
                    <path d="M24.592,24.173 C24.592,24.173 24.592,34.273 22.909,35.392 C21.226,36.511 36.372,37.636 36.372,37.636 L36.372,24.736 L24.592,24.173 Z" id="Path_1840" fill="#CFACB1"></path>
                    <path d="M6.08,80.266 C6.08,80.266 16.738,92.607 18.98,92.607 C21.222,92.607 23.468,84.193 23.468,84.193 L12.81,76.34 L6.08,80.266 Z" id="Path_1841" fill="#CFACB1"></path>
                    <path d="M22.909,31.463 L21.226,34.829 C21.226,34.829 3.276,40.438 2.715,52.218 L17.86,77.46 C17.86,77.46 18.982,79.143 18.421,80.26 C17.86,81.377 17.299,80.821 17.86,82.504 C18.421,84.187 18.421,83.626 18.421,84.748 C18.421,85.87 16.738,85.309 18.421,85.87 C20.104,86.431 17.86,85.87 24.03,87.553 C30.2,89.236 48.712,88.675 48.712,88.675 L45.346,56.14 L48.712,49.409 L44.224,35.946 C44.224,35.946 41.424,35.385 39.736,36.507 C38.048,37.629 35.809,35.385 35.809,35.385 C35.809,35.385 33.006,31.463 22.909,31.463 Z" id="Path_1844" fill="#575A89"></path>
                    <path d="M41.42,36.512 L44.22,35.951 C44.22,35.951 55.439,32.585 56,29.781 C56.561,26.977 59.366,23.611 59.366,23.611 C59.366,23.611 68.341,21.367 67.78,28.659 C67.219,35.951 64.98,38.195 63.853,39.317 C62.726,40.439 50.391,49.417 48.147,49.417 C45.903,49.417 41.42,36.512 41.42,36.512 Z" id="Path_1845" fill="#575A89"></path>
                    <path d="M3.837,49.975 L2.715,52.219 L2.154,72.413 C2.154,72.413 -1.212,74.657 0.471,75.779 C2.154,76.901 6.08,81.949 7.202,81.949 C8.324,81.949 14.494,79.149 14.494,78.022 C14.494,76.895 13.372,66.803 13.372,66.803 L3.837,49.975 Z" id="Path_1846" fill="#575A89"></path>
                    <path d="M24.592,178.991 C24.592,178.991 24.592,184.6 24.031,185.722 C23.47,186.844 22.348,192.453 25.714,192.453 C27.6420322,192.480497 29.5539064,192.098054 31.323,191.331 C31.323,191.331 31.323,187.965 33.006,187.404 C34.689,186.843 38.615,182.356 36.933,181.234 C35.3294142,180.319457 33.6383192,179.56771 31.885,178.99 L24.592,178.991 Z" id="Path_1847" fill="#2F2E41"></path>
                    <path d="M48.712,181.795 C48.712,181.795 45.346,189.648 48.712,190.209 C52.078,190.77 56.565,190.209 57.126,189.087 C57.687,187.965 58.809,186.843 59.926,187.404 C61.043,187.965 70.584,181.233 67.218,180.112 C65.216008,179.441336 63.049992,179.441336 61.048,180.112 L57.682,178.429 L48.712,181.795 Z" id="Path_1848" fill="#2F2E41"></path>
                    <path d="M31.967,30.194 C32.12608,30.183999 32.2813537,30.1410945 32.423,30.068 C32.6511666,29.8839714 32.8026684,29.6216058 32.848,29.332 L33.994,25.273 C34.429,23.733 35.127,21.934 36.694,21.609 C37.0223255,21.5868601 37.3432456,21.5012814 37.639,21.357 C37.9864234,21.0299929 38.173785,20.5676153 38.152,20.091 L38.643,14.845 C38.8803729,13.4353552 38.7997415,11.9904812 38.407,10.616 C37.5438549,8.65427941 35.7287649,7.27745799 33.607,6.975 C31.5145538,6.70229188 29.3873157,6.92388632 27.396,7.622 C24.343,8.537 21.181,10.111 19.854,13.01 C19.1811882,14.7372259 18.936553,16.6016681 19.141,18.444 C19.1635824,20.3503857 19.5867352,22.2307244 20.383,23.963 C20.8676568,24.8356825 21.430284,25.6627211 22.064,26.434 C23.011,27.66 24.172,30.056 25.739,30.513 C27.509,31.029 30.177,30.424 31.967,30.194 Z" id="Path_1849" fill="#2F2E41"></path>
                    <path d="M49.834,88.118 L19.543,85.318 C19.543,85.318 15.616,103.829 16.743,111.118 C17.87,118.407 18.426,139.165 18.426,139.165 C18.426,139.165 19.548,176.748 21.226,178.992 C22.904,181.236 28.518,180.675 30.201,181.792 C31.884,182.909 34.689,179.548 34.689,178.992 C34.689,178.436 31.323,178.431 33.006,175.065 C34.689,171.699 28.518,162.165 30.206,157.676 C31.894,153.187 34.694,147.018 33.006,144.776 C31.318,142.534 34.128,113.924 34.128,113.924 C34.128,113.924 48.146,134.116 48.146,143.091 C48.146,152.066 47.024,172.821 46.463,175.065 C45.902,177.309 45.341,177.865 46.463,179.552 C47.585,181.239 48.707,182.918 48.146,183.479 C47.585,184.04 58.246,183.479 58.246,180.113 C58.246,176.747 57.685,176.747 58.807,173.943 C59.929,171.139 60.49,137.482 60.49,137.482 L49.834,88.118 Z" id="Path_1843" fill="#2F2E41"></path>
                    <path d="M59.37,24.732 L61.053,12.952 C61.053,12.952 62.175,-3.315 65.541,0.611 C68.907,4.537 66.663,13.511 66.663,13.511 C66.663,13.511 68.346,26.411 66.663,28.096 C64.98,29.781 59.37,24.732 59.37,24.732 Z" id="Path_1842" fill="#CFACB1"></path>
                </g>
            </g>
        </g>
    </g>
</svg>